<svg width="147" height="34" viewBox="0 0 146.759 34.1446" fill="none" xmlns="http://www.w3.org/2000/svg">
<g id="components">
<path id="logo" d="M26.2833 4.82853L23.2479 7.86366H32.4899V14.6921H27.9031L34.354 21.1425L29.525 25.9709L26.4885 22.9347V32.1764H19.6595V27.4887L13.0031 34.1446L8.17425 29.316L11.3144 26.1762H2.06949V19.3478H6.44983L0 12.8985L4.82896 8.06998L11.487 14.7275L6.86618 19.3478H11.4853V26.0053L14.8323 22.6586L19.6595 27.4855V22.7614H26.3152L22.867 19.3135L27.4889 14.6921H23.0741V8.03725L19.6251 11.4859L14.8997 6.76079V11.2772H8.0707V1.86222H14.8997V6.55402L21.4543 0L26.2833 4.82853Z" fill="var(--fill-0, #5E49D6)"/>
<g id="text">
<path d="M128.85 14.4236L131.56 20.2689H131.985L133.447 16.6819L132.331 14.3971L130.683 12.9358H140.355L138.309 14.4768L141.046 20.2689H141.471L143.889 14.3705L141.737 12.9358H146.759L144.554 14.3705L138.894 27.8675L133.792 17.3728L129.355 27.8675L122.924 14.4768L121.171 12.9358H130.338L128.85 14.4236Z" fill="var(--fill-0, #5E49D6)"/>
<path d="M53.5372 6.2932C56.1678 6.2932 59.3298 6.79806 60.6584 7.46229V7.94054L61.3759 14.7422C58.3999 9.64093 56.6992 6.90436 53.5372 6.90436C50.083 6.90439 47.8245 10.7037 47.8245 16.6019C47.8245 22.6331 49.9501 26.459 53.1652 26.459C55.0252 26.459 56.5133 24.918 57.0182 22.6331V17.1599H53.2449V16.5223H64.0064L62.6246 18.382V27.0702L59.3564 25.5025C57.6558 26.459 55.3175 27.0702 53.0058 27.0702C46.8147 27.0702 41.8193 22.3674 41.8193 16.6019C41.8193 10.9428 47.0538 6.29322 53.5372 6.2932Z" fill="var(--fill-0, #5E49D6)"/>
<path d="M82.1933 13.2008H86.0195V14.5825H82.1933V22.7923C82.1933 23.9879 83.0701 24.7583 84.3721 24.7583C85.2755 24.7583 86.3118 24.227 87.0557 23.3768C85.9929 25.3429 83.4952 27.0699 81.1038 27.0699C78.3404 27.0699 76.6132 25.4757 76.7461 22.9782L77.1447 15.4858L74.7798 14.1839L76.7461 12.4569V10.6238L82.1933 8.41848V13.2008Z" fill="var(--fill-0, #5E49D6)"/>
<path fill-rule="evenodd" clip-rule="evenodd" d="M115.7 12.4035C118.569 12.4035 120.589 14.1572 120.589 16.7078V23.7218L122.024 24.705L115.221 27.0696V24.4659C113.733 26.0334 111.767 27.0696 110.093 27.0696C108.233 27.0696 106.851 25.8473 106.851 24.2001C106.851 21.623 111.794 19.8163 115.221 18.1159V16.8139C115.221 14.7682 114.265 13.546 112.989 13.546C112.511 13.546 112.113 13.7054 111.794 13.971C110.439 15.1135 111.74 19.6834 108.791 19.6834C107.622 19.6834 106.825 18.8332 106.825 17.6377C106.825 14.5557 113.654 12.4036 115.7 12.4035ZM115.221 18.6206C113.228 19.5771 112.086 20.6399 112.086 22.4466C112.086 23.6954 112.803 24.5722 113.84 24.5722C114.424 24.5722 114.876 24.2532 115.221 23.8281V18.6206Z" fill="var(--fill-0, #5E49D6)"/>
<path d="M72.4792 25.423L73.5421 26.7515H66.0224L67.0852 25.423V20.8195L65.8004 20.1494L72.4792 13.5072V25.423Z" fill="var(--fill-0, #5E49D6)"/>
<path d="M94.4169 8.55124V26.1132H99.5983L104.992 18.3551L104.248 26.2195V26.751H87.4286L88.8103 25.024V8.55124L87.4286 6.82422H96.0111L94.4169 8.55124Z" fill="var(--fill-0, #5E49D6)"/>
<path d="M73.2513 10.0293L68.0608 15.2193L64.2963 11.4551L69.4868 6.26506L73.2513 10.0293Z" fill="var(--fill-0, #5E49D6)"/>
</g>
</g>
</svg>
